<svg xmlns="http://www.w3.org/2000/svg" viewBox="0 0 96 32">
  <g fill="#FFF">
    <path
      d="M10.586 10.935c-.25-.726-.771-1.339-1.565-1.838-.795-.499-1.835-.749-3.121-.749H0v15.271h3.45v-5.876h1.679c1.073 0 1.981-.106 2.722-.318.741-.212 1.342-.514 1.804-.908a3.35 3.35 0 0 0 .999-1.463c.204-.582.306-1.251.306-2.008a6.49 6.49 0 0 0-.374-2.111zm-7.141 4.869v-5.553l4.759 2.777-4.759 2.776zm8.34 7.815V8.348h3.494v12.298h6.286l-.363 2.973h-9.417z"/>
    <path
      d="M18.752 23.619L24.22 8.348h3.313l5.445 15.271h-3.517l-1.266-3.699h-4.798l-1.265 3.699h-3.38zm5.499-6.489h3.107l-1.527-4.97-1.58 4.97zm10.247 6.489v-6.467l-5.014-8.804h3.766l3.086 5.945 3.109-5.945h3.54l-4.992 8.804v6.467h-3.495z"/>
  </g>
  <path fill="#AF001E" d="M48 0h48v32H48z"/>
  <path
    d="M80.078 21.154l-.283 1.816c-.047.353.118.495.425.542.684.094 2.405.211 4.08.211 3.749 0 6.485-1.226 6.485-4.716 0-2.052-.896-3.584-4.009-4.386l-1.745-.448c-1.179-.307-1.722-.684-1.722-1.556 0-1.226 1.132-1.462 2.217-1.462 1.462 0 2.948.118 3.537.165.612.047.778-.023.872-.543l.283-1.769c.048-.353-.117-.495-.424-.542-.684-.095-2.193-.212-4.103-.212-3.891 0-5.777 1.697-5.777 4.385 0 2.429 1.32 3.868 3.608 4.456l1.745.448c1.439.378 2.052.802 2.052 1.699 0 1.32-.896 1.556-3.065 1.556-.991 0-2.712-.141-3.302-.188-.614-.045-.779.025-.874.544zm-9.376 1.792c0 .472.142.637.614.637h2.169c.472 0 .613-.164.613-.637V11.298h4.008c.472 0 .614-.166.614-.637V9.057c0-.471-.141-.637-.614-.637H66.694c-.472 0-.613.165-.613.637v1.604c0 .471.141.637.613.637h4.008v11.648zm-11.466-7.192l-.236.99c-.071.283-.094.425-.094.519 0 .236.071.424.236.707l2.806 5.047c.236.401.425.565.991.565h2.57c.33 0 .731-.212.354-.801l-3.443-5.706c1.156-.731 2.453-1.769 2.453-4.056 0-2.947-1.651-4.598-5.283-4.598h-5.259c-.471 0-.612.165-.612.637v13.889c0 .472.141.637.612.637h2.17c.472 0 .614-.164.614-.637v-11.72h2.24c1.415 0 2.098.519 2.098 1.84 0 1.202-.542 1.579-1.085 1.815-.684.283-.92-.024-1.132.872z"
    fill="#FFF"/>
</svg>
